<?xml version="1.0"?>
<svg width="238" height="131" xmlns="http://www.w3.org/2000/svg" xmlns:svg="http://www.w3.org/2000/svg">
 <g class="layer">
  <title>Layer 1</title>
  <path d="m25.82,104.97c0.78,-2.49 1.66,-4.96 2.66,-7.38c1.01,-2.43 2.16,-4.79 3.45,-7.08c1.38,-2.43 2.93,-4.76 4.64,-6.97c2.29,-2.98 4.97,-5.63 7.98,-7.87c1.52,-1.12 3.13,-2.11 4.83,-2.95c0.87,-0.44 1.77,-0.81 2.71,-1.09c0.99,-0.31 2.03,-0.46 3.07,-0.43c0.57,0.02 1.14,0.13 1.68,0.32c0.61,0.2 1.16,0.55 1.6,1.01c0.46,0.49 0.78,1.09 0.93,1.74c0.13,0.6 0.15,1.22 0.04,1.82c-0.1,0.56 -0.28,1.1 -0.53,1.61c-0.24,0.47 -0.52,0.92 -0.84,1.34c-0.59,0.79 -1.24,1.52 -1.94,2.2c-1.4,1.33 -2.97,2.48 -4.67,3.4c-1.71,0.92 -3.54,1.59 -5.44,1.99c-2.36,0.5 -4.8,0.52 -7.17,0.04c-0.32,-0.07 -0.64,-0.16 -0.95,-0.27c-0.32,-0.11 -0.63,-0.25 -0.93,-0.41c-0.61,-0.33 -1.17,-0.75 -1.63,-1.26c-0.47,-0.53 -0.84,-1.13 -1.09,-1.79c-0.23,-0.63 -0.37,-1.29 -0.41,-1.96c-0.07,-1.25 0.08,-2.49 0.43,-3.69c0.15,-0.58 0.34,-1.15 0.56,-1.7c0.1,-0.28 0.21,-0.56 0.33,-0.83c0.12,-0.27 0.24,-0.52 0.36,-0.78c0.97,-2.08 2.07,-4.1 3.29,-6.03c4.94,-7.74 11.74,-14.11 19.77,-18.56c0.3,-0.17 0.61,-0.32 0.91,-0.48c0.31,-0.16 0.61,-0.32 0.92,-0.47c0.62,-0.3 1.24,-0.61 1.87,-0.87c1.26,-0.57 2.54,-1.05 3.82,-1.5c1.02,-0.36 2.06,-0.65 3.12,-0.88c0.43,-0.09 0.81,-0.16 1.15,-0.21c0.34,-0.04 0.64,-0.07 0.91,-0.09c0.76,-0.04 0.79,0.11 0.2,0.4c-0.14,0.07 -0.33,0.15 -0.55,0.24c-0.22,0.09 -0.48,0.19 -0.78,0.3c-0.29,0.12 -0.61,0.24 -0.97,0.37c-0.36,0.13 -0.75,0.28 -1.18,0.43c-2.22,0.83 -4.39,1.77 -6.51,2.83c-4.85,2.42 -9.28,5.59 -13.14,9.39c-3.85,3.77 -7.07,8.14 -9.53,12.94c-0.17,0.33 -0.33,0.67 -0.5,1c-0.16,0.34 -0.31,0.68 -0.47,1.02c-0.16,0.34 -0.3,0.69 -0.45,1.03c-0.15,0.35 -0.3,0.69 -0.43,1.02c-0.52,1.29 -0.85,2.65 -0.97,4.03c-0.08,1.03 0.07,2.03 0.52,2.8c0.23,0.39 0.54,0.74 0.9,1.01c0.19,0.14 0.39,0.27 0.6,0.37c0.21,0.12 0.43,0.21 0.66,0.28c0.23,0.08 0.48,0.14 0.72,0.19l0.81,0.13c0.27,0.03 0.55,0.06 0.82,0.09c0.27,0.01 0.55,0.04 0.82,0.04c1.11,0.03 2.21,-0.07 3.3,-0.27c2.19,-0.41 4.28,-1.23 6.17,-2.41c0.95,-0.58 1.85,-1.25 2.68,-1.99c0.84,-0.72 1.59,-1.52 2.26,-2.4l0.18,-0.24l0.09,-0.12l0.08,-0.12c0.1,-0.15 0.19,-0.3 0.27,-0.46c0.16,-0.31 0.28,-0.63 0.36,-0.97c0.07,-0.3 0.08,-0.62 0.04,-0.93c-0.02,-0.13 -0.06,-0.27 -0.11,-0.4c-0.05,-0.12 -0.11,-0.23 -0.19,-0.33c-0.08,-0.11 -0.18,-0.2 -0.28,-0.28c-0.11,-0.09 -0.23,-0.16 -0.36,-0.22c-0.3,-0.13 -0.62,-0.22 -0.95,-0.25c-0.37,-0.04 -0.73,-0.04 -1.1,0c-0.39,0.04 -0.77,0.1 -1.14,0.19c-0.79,0.21 -1.55,0.48 -2.29,0.82c-0.38,0.18 -0.76,0.36 -1.13,0.56c-0.38,0.19 -0.75,0.39 -1.12,0.6c-1.47,0.84 -2.87,1.8 -4.19,2.86c-2.38,1.91 -4.52,4.09 -6.39,6.49c-1.88,2.42 -3.54,5 -4.97,7.71c-0.71,1.36 -1.38,2.75 -2,4.15c-0.31,0.71 -0.61,1.42 -0.89,2.14l-0.42,1.07l-0.4,1.09c-0.28,0.72 -0.51,1.45 -0.77,2.18c-0.23,0.74 -0.48,1.47 -0.7,2.21c-0.46,1.47 -0.86,2.97 -1.26,4.47c-1.24,4.78 -2.32,9.34 -3.6,13.33c-0.6,1.84 -1.1,1.61 -0.83,-0.6c0.42,-3.13 0.96,-6.4 1.62,-9.65c0.55,-2.66 1.28,-5.37 2.07,-8.03c-0.01,-0.01 -0.02,-0.02 -0.03,-0.03z" fill="#ffc000" id="svg_1"/>
  <path d="m33.04,110.33c-1.16,1.14 -2.23,2.37 -3.19,3.67c-0.25,0.36 -0.5,0.71 -0.75,1.07c-0.23,0.37 -0.46,0.74 -0.67,1.11c-0.91,1.65 -1.69,3.38 -2.46,5.13l-1.13,2.65c-0.38,0.88 -0.75,1.78 -1.15,2.65l0,0.02c-0.14,0.3 -0.39,0.53 -0.7,0.65c-0.32,0.12 -0.66,0.1 -0.96,-0.03c-0.19,-0.09 -0.36,-0.23 -0.48,-0.39c-0.13,-0.17 -0.21,-0.37 -0.24,-0.58l-0.39,-2.69c-0.43,-2.89 -0.86,-5.79 -1.27,-8.7c-0.42,-2.91 -0.81,-5.83 -1.13,-8.77c-0.08,-0.89 -0.12,-1.79 -0.11,-2.68c0,-0.85 0.22,-1.42 0.52,-1.78c0.45,-0.52 0.99,-0.06 1.22,1.1c0.15,0.76 0.25,1.53 0.3,2.3c0.32,3.55 0.86,7.08 1.63,10.56c0.2,0.96 0.46,1.96 0.53,2.91c0.21,2.49 0.66,4.94 1.05,7.41l-2.13,-0.3c0.23,-0.53 0.47,-1.05 0.72,-1.57c1,-2.05 1.9,-4.17 2.96,-6.23c0.94,-1.85 2.03,-3.64 3.25,-5.33c1.23,-1.68 2.61,-3.24 4.12,-4.68c0.3,-0.28 0.6,-0.56 0.91,-0.81c0.31,-0.25 0.63,-0.49 0.95,-0.7c0.62,-0.42 1.28,-0.77 1.99,-1.03c0.31,-0.11 0.54,-0.07 0.63,0.08c0.1,0.15 0.07,0.42 -0.14,0.72c-0.33,0.4 -0.68,0.79 -1.02,1.18c-0.35,0.4 -0.71,0.79 -1.07,1.17c-0.28,0.32 -0.59,0.63 -0.9,0.93l-0.24,0.22l-0.22,0.24c-0.15,0.16 -0.3,0.31 -0.45,0.47l0.02,0.03z" fill="#ffc000" id="svg_2"/>
  <path d="m93.81,43.62c-0.48,0.1 -0.92,0.12 -1.31,0.08c-0.39,-0.06 -0.77,-0.17 -1.13,-0.35c-0.35,-0.18 -0.73,-0.42 -1.15,-0.72c-0.21,-0.25 -0.38,-0.48 -0.51,-0.68c-0.12,-0.22 -0.21,-0.48 -0.27,-0.8c-0.05,-0.25 -0.03,-0.48 0.05,-0.69c0.07,-0.21 0.27,-0.35 0.57,-0.41c0.22,-0.04 0.45,0.05 0.69,0.27c0.09,0.18 0.22,0.38 0.41,0.61c0.19,0.22 0.44,0.42 0.75,0.6c0.33,0.18 0.74,0.29 1.23,0.33c0.13,0.01 0.27,0 0.43,-0.03c0.27,-0.06 0.54,-0.16 0.8,-0.32c0.27,-0.17 0.49,-0.37 0.65,-0.6c0.16,-0.24 0.21,-0.51 0.15,-0.8c-0.05,-0.25 -0.17,-0.45 -0.37,-0.59c-0.2,-0.15 -0.42,-0.27 -0.67,-0.35c-0.25,-0.09 -0.48,-0.16 -0.68,-0.22c-0.41,-0.11 -0.81,-0.22 -1.23,-0.33c-0.41,-0.12 -0.8,-0.27 -1.16,-0.46c-0.37,-0.2 -0.68,-0.46 -0.95,-0.77c-0.26,-0.32 -0.44,-0.73 -0.54,-1.24c-0.11,-0.57 -0.06,-1.08 0.16,-1.53c0.21,-0.45 0.53,-0.82 0.95,-1.11c0.43,-0.31 0.9,-0.51 1.42,-0.61c0.18,-0.03 0.4,-0.06 0.68,-0.08c0.29,-0.03 0.6,-0.03 0.93,-0.02c0.33,0.01 0.65,0.06 0.95,0.14c0.31,0.07 0.57,0.18 0.79,0.35c0.22,0.16 0.35,0.39 0.41,0.67c0.04,0.23 0,0.45 -0.15,0.66c-0.13,0.2 -0.31,0.33 -0.55,0.37c-0.25,0.05 -0.47,0.05 -0.67,-0.01c-0.19,-0.06 -0.39,-0.13 -0.58,-0.22c-0.18,-0.08 -0.38,-0.15 -0.61,-0.2c-0.23,-0.06 -0.49,-0.05 -0.79,0.01l-0.46,0.09c-0.24,0.15 -0.43,0.33 -0.58,0.53c-0.15,0.2 -0.2,0.38 -0.17,0.54c0.06,0.32 0.22,0.56 0.49,0.74c0.27,0.17 0.6,0.32 1,0.44c0.4,0.11 0.81,0.21 1.25,0.32c0.44,0.11 0.87,0.26 1.28,0.45c0.41,0.18 0.77,0.44 1.06,0.77c0.3,0.33 0.51,0.76 0.61,1.3c0.11,0.52 0.08,0.99 -0.06,1.42c-0.14,0.43 -0.37,0.81 -0.69,1.14c-0.31,0.34 -0.68,0.62 -1.11,0.84c-0.42,0.22 -0.86,0.38 -1.32,0.47zm9.94,-1.95c-0.76,0.15 -1.49,0.13 -2.2,-0.07c-0.72,-0.2 -1.33,-0.56 -1.84,-1.07c-0.52,-0.52 -0.85,-1.18 -1.01,-1.98c-0.11,-0.54 -0.1,-1.06 0.03,-1.57c0.14,-0.51 0.34,-1.01 0.61,-1.49c0.28,-0.47 0.56,-0.93 0.84,-1.35c0.15,-0.23 0.35,-0.41 0.6,-0.54c0.24,-0.15 0.5,-0.25 0.77,-0.3c0.68,-0.13 1.35,-0.19 2.01,-0.16c0.65,0.02 1.26,0.15 1.82,0.39c0.56,0.22 1.05,0.58 1.45,1.07c0.39,0.47 0.67,1.1 0.82,1.87c0.13,0.64 0.1,1.25 -0.07,1.83c-0.16,0.57 -0.44,1.1 -0.83,1.56c-0.38,0.47 -0.83,0.86 -1.35,1.18c-0.52,0.31 -1.07,0.52 -1.65,0.63zm-0.66,-1.68c0.58,-0.11 1.1,-0.32 1.58,-0.62c0.47,-0.31 0.83,-0.7 1.07,-1.17c0.25,-0.48 0.32,-1.03 0.2,-1.64c-0.1,-0.53 -0.35,-0.94 -0.73,-1.24c-0.38,-0.29 -0.81,-0.48 -1.32,-0.55c-0.5,-0.09 -1,-0.09 -1.5,0.01c-0.25,0.05 -0.44,0.13 -0.59,0.23c-0.14,0.11 -0.26,0.23 -0.36,0.38c-0.1,0.15 -0.22,0.33 -0.36,0.53c-0.23,0.36 -0.42,0.75 -0.58,1.16c-0.16,0.4 -0.2,0.83 -0.11,1.29c0.14,0.73 0.47,1.22 0.97,1.46c0.5,0.23 1.08,0.29 1.73,0.16zm8.47,-0.01c-0.23,0.04 -0.45,0.01 -0.65,-0.1c-0.2,-0.12 -0.32,-0.3 -0.37,-0.53c-0.07,-0.35 -0.12,-0.68 -0.16,-1.01c-0.04,-0.33 -0.08,-0.67 -0.15,-1l-0.2,-1.04c-0.09,-0.43 -0.19,-0.85 -0.3,-1.26c-0.11,-0.43 -0.26,-0.84 -0.45,-1.23c-0.07,-0.12 -0.13,-0.24 -0.19,-0.37c-0.05,-0.15 -0.09,-0.29 -0.12,-0.44c-0.04,-0.21 -0.03,-0.43 0.04,-0.66c0.06,-0.24 0.22,-0.38 0.5,-0.44c0.22,-0.04 0.41,0.01 0.58,0.15c0.17,0.13 0.31,0.31 0.43,0.54c0.12,0.21 0.22,0.44 0.3,0.67c0.08,0.22 0.16,0.41 0.22,0.56c0.05,0.13 0.11,0.27 0.18,0.42c0.07,0.15 0.12,0.3 0.15,0.45c0,0.01 0.02,0.03 0.05,0.08c0.03,0.05 0.06,0.1 0.1,0.15c0.08,-0.27 0.18,-0.56 0.3,-0.88c0.12,-0.32 0.26,-0.63 0.42,-0.93c0.17,-0.3 0.37,-0.56 0.59,-0.78c0.24,-0.22 0.53,-0.37 0.85,-0.43c0.34,-0.06 0.6,-0.03 0.8,0.1c0.21,0.13 0.39,0.3 0.54,0.52c0.15,0.21 0.3,0.42 0.45,0.63c0.06,0.09 0.11,0.2 0.15,0.31c0.03,0.1 0.07,0.21 0.14,0.32l0.12,-0.29c0.15,-0.33 0.33,-0.7 0.52,-1.1c0.2,-0.4 0.45,-0.77 0.73,-1.08c0.29,-0.33 0.64,-0.54 1.06,-0.62c0.33,-0.06 0.63,-0.02 0.9,0.13c0.28,0.15 0.52,0.35 0.73,0.63c0.22,0.27 0.39,0.56 0.53,0.87c0.14,0.31 0.23,0.6 0.29,0.88l0.65,3.32c0.03,0.16 0.04,0.34 0.02,0.54c-0.01,0.18 -0.06,0.36 -0.14,0.52c-0.09,0.14 -0.24,0.24 -0.45,0.28c-0.24,0.05 -0.45,0 -0.63,-0.14c-0.18,-0.14 -0.29,-0.3 -0.33,-0.49l-0.56,-2.86c0,-0.03 -0.02,-0.1 -0.05,-0.2c-0.03,-0.1 -0.07,-0.21 -0.12,-0.32c-0.03,-0.11 -0.05,-0.19 -0.06,-0.25c-0.02,-0.08 -0.05,-0.21 -0.11,-0.38c-0.05,-0.18 -0.13,-0.34 -0.22,-0.48c-0.1,-0.15 -0.21,-0.21 -0.33,-0.18l-0.14,0.03c-0.26,0.33 -0.45,0.64 -0.56,0.92c-0.11,0.27 -0.18,0.54 -0.22,0.79c-0.03,0.26 -0.06,0.53 -0.08,0.82c-0.02,0.28 -0.07,0.58 -0.14,0.92c-0.02,0.29 -0.09,0.57 -0.22,0.84c-0.11,0.27 -0.3,0.42 -0.59,0.48c-0.27,0.05 -0.49,0.02 -0.67,-0.1c-0.16,-0.13 -0.31,-0.3 -0.42,-0.5c-0.11,-0.21 -0.2,-0.41 -0.28,-0.6c-0.04,-0.09 -0.11,-0.24 -0.21,-0.45c-0.09,-0.21 -0.2,-0.44 -0.31,-0.69c-0.1,-0.25 -0.2,-0.48 -0.3,-0.7c-0.1,-0.23 -0.17,-0.41 -0.22,-0.52c-0.08,-0.08 -0.15,-0.11 -0.21,-0.1c-0.1,0.02 -0.18,0.11 -0.26,0.26c-0.08,0.16 -0.13,0.3 -0.16,0.44c-0.04,0.11 -0.1,0.29 -0.17,0.56c-0.07,0.25 -0.13,0.49 -0.19,0.74c-0.05,0.23 -0.09,0.39 -0.11,0.47c-0.01,0.07 -0.04,0.23 -0.1,0.49c-0.04,0.26 -0.1,0.56 -0.16,0.9c-0.07,0.33 -0.13,0.63 -0.18,0.9c-0.06,0.27 -0.1,0.45 -0.11,0.54c-0.07,0.22 -0.14,0.43 -0.22,0.62c-0.07,0.19 -0.25,0.31 -0.52,0.36zm16.17,-2.76c-0.75,0.15 -1.47,0.17 -2.15,0.06c-0.68,-0.12 -1.26,-0.39 -1.75,-0.83c-0.49,-0.45 -0.81,-1.09 -0.97,-1.91c-0.13,-0.63 -0.15,-1.26 -0.07,-1.9c0.1,-0.64 0.29,-1.23 0.58,-1.79c0.29,-0.57 0.68,-1.05 1.17,-1.44c0.49,-0.4 1.07,-0.66 1.75,-0.8c0.46,-0.09 0.91,-0.08 1.34,0.03c0.45,0.1 0.82,0.31 1.13,0.61c0.32,0.3 0.53,0.7 0.63,1.2c0.1,0.48 0.09,0.96 -0.03,1.44c-0.11,0.48 -0.3,0.93 -0.58,1.34c-0.28,0.41 -0.62,0.76 -1.02,1.05c-0.39,0.27 -0.82,0.45 -1.29,0.54c-0.08,0.02 -0.24,0.04 -0.5,0.05c-0.26,0.01 -0.47,0.01 -0.62,-0.01c-0.11,0 -0.2,-0.02 -0.28,-0.07c-0.02,-0.01 -0.06,-0.02 -0.12,-0.03c-0.06,-0.02 -0.09,-0.03 -0.12,-0.02c0.14,0.29 0.34,0.51 0.61,0.68c0.28,0.15 0.58,0.24 0.9,0.28c0.33,0.03 0.64,0.02 0.93,-0.04c0.19,-0.04 0.39,-0.09 0.59,-0.15c0.2,-0.07 0.42,-0.13 0.65,-0.17c0.23,-0.05 0.44,-0.02 0.63,0.07c0.19,0.09 0.32,0.28 0.37,0.56c0.05,0.23 0.01,0.43 -0.11,0.58c-0.12,0.15 -0.28,0.27 -0.49,0.36c-0.2,0.08 -0.41,0.14 -0.63,0.18c-0.21,0.06 -0.39,0.1 -0.55,0.13zm-1.62,-4.22c0.31,-0.06 0.61,-0.18 0.89,-0.35c0.29,-0.19 0.51,-0.42 0.66,-0.7c0.17,-0.28 0.21,-0.6 0.14,-0.96c-0.06,-0.3 -0.2,-0.52 -0.42,-0.66c-0.22,-0.15 -0.47,-0.19 -0.78,-0.13c-0.27,0.05 -0.54,0.18 -0.82,0.39c-0.27,0.21 -0.52,0.45 -0.75,0.73c-0.22,0.29 -0.38,0.58 -0.5,0.88c-0.11,0.3 -0.15,0.57 -0.1,0.82l0.01,0.06c0.28,-0.01 0.57,-0.01 0.85,0c0.28,0 0.56,-0.03 0.82,-0.08zm13.4,1.83c-0.18,0.03 -0.34,0 -0.46,-0.11c-0.11,-0.11 -0.21,-0.24 -0.27,-0.4c-0.07,-0.17 -0.13,-0.32 -0.19,-0.45l-0.22,-1.17c-0.12,-0.58 -0.21,-1.18 -0.27,-1.79c-0.07,-0.61 -0.16,-1.21 -0.27,-1.78c-0.06,-0.28 -0.13,-0.53 -0.24,-0.77c-0.1,-0.25 -0.17,-0.5 -0.22,-0.76l-0.09,-0.42c0.06,-0.18 0.14,-0.31 0.26,-0.41c0.14,-0.1 0.28,-0.17 0.44,-0.2c0.23,-0.05 0.41,-0.01 0.56,0.1c0.14,0.1 0.24,0.24 0.32,0.41c0.09,0.17 0.17,0.32 0.24,0.46c0.07,0.13 0.15,0.19 0.25,0.19c0.26,-0.25 0.51,-0.5 0.75,-0.75c0.24,-0.24 0.51,-0.45 0.79,-0.62c0.29,-0.19 0.62,-0.32 1,-0.39c0.18,-0.04 0.39,-0.04 0.62,0c0.23,0.04 0.45,0.13 0.63,0.25c0.19,0.12 0.3,0.29 0.35,0.51c0.05,0.27 -0.02,0.49 -0.22,0.66c-0.18,0.17 -0.37,0.27 -0.55,0.3c-0.13,0.03 -0.26,0.03 -0.38,0c-0.13,-0.03 -0.25,-0.04 -0.38,-0.01c-0.37,0.07 -0.69,0.23 -0.98,0.48c-0.28,0.24 -0.51,0.51 -0.7,0.81c-0.2,0.3 -0.34,0.57 -0.45,0.82c-0.02,0.1 -0.02,0.27 0,0.49c0.02,0.23 0.06,0.48 0.1,0.76c0.04,0.28 0.09,0.55 0.13,0.81c0.05,0.26 0.09,0.49 0.11,0.68c0.06,0.35 0.09,0.69 0.09,1.03c0.01,0.32 -0.04,0.6 -0.14,0.84c-0.11,0.23 -0.31,0.37 -0.61,0.43zm9.89,-1.86c-0.76,0.15 -1.48,0.17 -2.16,0.07c-0.68,-0.12 -1.26,-0.4 -1.75,-0.84c-0.49,-0.44 -0.81,-1.08 -0.97,-1.91c-0.13,-0.63 -0.15,-1.26 -0.06,-1.89c0.09,-0.64 0.28,-1.24 0.57,-1.8c0.29,-0.56 0.68,-1.04 1.17,-1.43c0.49,-0.4 1.07,-0.67 1.75,-0.8c0.46,-0.09 0.91,-0.08 1.35,0.03c0.44,0.1 0.82,0.3 1.13,0.61c0.32,0.3 0.52,0.69 0.62,1.2c0.1,0.48 0.09,0.96 -0.02,1.44c-0.12,0.48 -0.31,0.92 -0.59,1.33c-0.28,0.42 -0.62,0.77 -1.02,1.05c-0.39,0.27 -0.82,0.46 -1.29,0.55c-0.08,0.01 -0.24,0.03 -0.5,0.05c-0.26,0.01 -0.47,0 -0.62,-0.01c-0.11,0 -0.2,-0.03 -0.28,-0.08c-0.02,0 -0.06,-0.01 -0.11,-0.02c-0.06,-0.02 -0.1,-0.03 -0.12,-0.03c0.13,0.29 0.33,0.52 0.6,0.68c0.28,0.15 0.58,0.25 0.9,0.28c0.34,0.03 0.64,0.02 0.93,-0.03c0.2,-0.04 0.39,-0.09 0.59,-0.15c0.2,-0.07 0.42,-0.13 0.65,-0.18c0.23,-0.04 0.44,-0.02 0.63,0.07c0.19,0.1 0.32,0.28 0.37,0.57c0.05,0.23 0.01,0.42 -0.11,0.57c-0.11,0.16 -0.28,0.28 -0.49,0.36c-0.2,0.08 -0.41,0.15 -0.63,0.19c-0.21,0.05 -0.39,0.09 -0.54,0.12zm-1.63,-4.21c0.31,-0.06 0.61,-0.18 0.89,-0.36c0.29,-0.18 0.51,-0.42 0.66,-0.7c0.17,-0.28 0.21,-0.6 0.14,-0.95c-0.06,-0.31 -0.2,-0.53 -0.42,-0.67c-0.21,-0.14 -0.47,-0.18 -0.78,-0.13c-0.27,0.06 -0.54,0.19 -0.82,0.39c-0.27,0.21 -0.52,0.45 -0.75,0.74c-0.22,0.28 -0.38,0.57 -0.5,0.88c-0.11,0.29 -0.15,0.57 -0.1,0.82l0.02,0.06c0.28,-0.01 0.56,-0.01 0.84,0c0.29,0 0.56,-0.03 0.82,-0.08zm9.68,2.15c-0.76,0.14 -1.43,0.08 -2.01,-0.18c-0.58,-0.28 -1.05,-0.69 -1.43,-1.24c-0.37,-0.56 -0.63,-1.18 -0.76,-1.87c-0.16,-0.79 -0.12,-1.54 0.09,-2.27c0.23,-0.73 0.61,-1.35 1.15,-1.87c0.55,-0.53 1.22,-0.88 2.02,-1.03c0.24,-0.05 0.51,-0.08 0.81,-0.08c0.31,-0.02 0.62,0.01 0.93,0.08c0.31,0.06 0.57,0.17 0.78,0.33c0.23,0.17 0.38,0.4 0.44,0.72c0.04,0.23 -0.01,0.42 -0.15,0.58c-0.14,0.16 -0.33,0.26 -0.57,0.31c-0.25,0.05 -0.49,0.03 -0.72,-0.06c-0.22,-0.09 -0.45,-0.19 -0.67,-0.27c-0.23,-0.1 -0.46,-0.12 -0.71,-0.07c-0.35,0.06 -0.64,0.23 -0.89,0.49c-0.24,0.27 -0.42,0.58 -0.56,0.95c-0.14,0.36 -0.23,0.74 -0.27,1.13c-0.03,0.37 -0.02,0.72 0.04,1.03c0.11,0.54 0.29,0.93 0.56,1.18c0.27,0.24 0.61,0.38 1,0.42c0.39,0.04 0.82,0.01 1.28,-0.08c0.43,-0.09 0.81,-0.25 1.15,-0.49c0.34,-0.24 0.68,-0.49 1.03,-0.74l0.31,-0.06c0.47,-0.09 0.75,0.1 0.84,0.57c0.06,0.28 0,0.54 -0.18,0.78c-0.18,0.24 -0.41,0.46 -0.72,0.67c-0.31,0.19 -0.65,0.36 -1.01,0.5c-0.36,0.15 -0.7,0.27 -1.02,0.37c-0.32,0.09 -0.58,0.16 -0.76,0.2zm10.05,-1.49c-0.76,0.15 -1.48,0.17 -2.16,0.07c-0.68,-0.12 -1.26,-0.4 -1.75,-0.83c-0.49,-0.45 -0.81,-1.09 -0.97,-1.91c-0.13,-0.63 -0.15,-1.26 -0.06,-1.9c0.09,-0.64 0.28,-1.24 0.57,-1.79c0.29,-0.57 0.68,-1.05 1.17,-1.44c0.49,-0.4 1.07,-0.67 1.75,-0.8c0.46,-0.09 0.91,-0.08 1.35,0.03c0.44,0.1 0.82,0.3 1.13,0.61c0.32,0.3 0.53,0.7 0.62,1.2c0.1,0.48 0.09,0.96 -0.02,1.44c-0.12,0.48 -0.31,0.92 -0.59,1.34c-0.28,0.41 -0.62,0.76 -1.02,1.04c-0.39,0.28 -0.82,0.46 -1.29,0.55c-0.08,0.02 -0.24,0.03 -0.5,0.05c-0.26,0.01 -0.47,0 -0.62,-0.01c-0.11,0 -0.2,-0.02 -0.28,-0.07c-0.02,-0.01 -0.06,-0.02 -0.11,-0.03c-0.06,-0.02 -0.1,-0.03 -0.12,-0.03c0.13,0.29 0.33,0.52 0.6,0.68c0.28,0.16 0.58,0.25 0.9,0.28c0.34,0.04 0.65,0.03 0.93,-0.03c0.2,-0.04 0.39,-0.09 0.59,-0.15c0.2,-0.07 0.42,-0.13 0.65,-0.17c0.23,-0.05 0.44,-0.03 0.63,0.07c0.19,0.09 0.32,0.28 0.37,0.56c0.05,0.23 0.01,0.42 -0.11,0.58c-0.11,0.15 -0.28,0.27 -0.49,0.35c-0.2,0.09 -0.41,0.15 -0.63,0.19c-0.2,0.05 -0.39,0.09 -0.54,0.12zm-1.63,-4.21c0.32,-0.06 0.61,-0.18 0.89,-0.35c0.29,-0.19 0.51,-0.42 0.67,-0.7c0.16,-0.29 0.2,-0.6 0.13,-0.96c-0.06,-0.3 -0.2,-0.53 -0.42,-0.67c-0.21,-0.14 -0.47,-0.18 -0.77,-0.12c-0.28,0.05 -0.55,0.18 -0.83,0.39c-0.27,0.2 -0.52,0.45 -0.75,0.73c-0.22,0.28 -0.38,0.58 -0.5,0.88c-0.11,0.3 -0.14,0.57 -0.1,0.82l0.02,0.06c0.28,-0.01 0.56,-0.01 0.84,0c0.29,0 0.56,-0.03 0.82,-0.08zm7.42,2.51c-0.26,0.05 -0.47,0.02 -0.63,-0.11c-0.15,-0.13 -0.27,-0.3 -0.34,-0.52c-0.08,-0.22 -0.14,-0.44 -0.18,-0.65c-0.09,-0.48 -0.18,-0.96 -0.25,-1.45c-0.07,-0.48 -0.14,-0.95 -0.23,-1.39c-0.09,-0.47 -0.23,-0.91 -0.42,-1.32c-0.19,-0.41 -0.32,-0.82 -0.41,-1.25l-0.12,-0.62c0.05,-0.23 0.13,-0.4 0.22,-0.49c0.08,-0.11 0.22,-0.18 0.39,-0.21c0.33,-0.07 0.59,-0.01 0.77,0.17c0.19,0.17 0.33,0.39 0.43,0.67c0.1,0.26 0.19,0.51 0.26,0.73c0.03,0.11 0.09,0.34 0.19,0.66c0.11,0.33 0.19,0.64 0.26,0.93l0.07,-0.01l0.05,-0.08c0.14,-0.33 0.29,-0.68 0.44,-1.06c0.15,-0.38 0.33,-0.74 0.54,-1.09c0.21,-0.34 0.46,-0.64 0.75,-0.88c0.29,-0.25 0.64,-0.42 1.05,-0.5c0.52,-0.1 1,-0.03 1.42,0.2c0.43,0.22 0.81,0.55 1.16,0.98c0.34,0.42 0.64,0.89 0.91,1.42c0.27,0.52 0.5,1.04 0.69,1.54c0.2,0.51 0.37,0.94 0.52,1.3l0.08,0.39c0.04,0.23 0.02,0.48 -0.06,0.73c-0.08,0.25 -0.26,0.4 -0.53,0.45c-0.28,0.05 -0.51,0.02 -0.67,-0.1c-0.15,-0.12 -0.27,-0.29 -0.36,-0.51c-0.04,-0.09 -0.1,-0.24 -0.17,-0.44c-0.07,-0.22 -0.16,-0.45 -0.25,-0.69c-0.09,-0.25 -0.18,-0.49 -0.25,-0.7c-0.08,-0.22 -0.13,-0.39 -0.18,-0.49c-0.07,-0.2 -0.19,-0.43 -0.36,-0.69c-0.16,-0.27 -0.31,-0.51 -0.45,-0.7c-0.13,-0.2 -0.3,-0.4 -0.49,-0.62c-0.2,-0.21 -0.43,-0.29 -0.72,-0.23c-0.25,0.05 -0.46,0.18 -0.64,0.4c-0.16,0.22 -0.3,0.46 -0.41,0.73c-0.1,0.27 -0.18,0.51 -0.26,0.72c-0.18,0.47 -0.34,0.94 -0.46,1.4c-0.13,0.46 -0.27,0.96 -0.41,1.5c-0.06,0.21 -0.1,0.46 -0.13,0.74c-0.04,0.27 -0.11,0.51 -0.22,0.73c-0.11,0.21 -0.31,0.35 -0.6,0.41zm12.33,-1.77c-0.32,0.07 -0.58,0.02 -0.78,-0.15c-0.19,-0.17 -0.35,-0.39 -0.45,-0.66c-0.1,-0.29 -0.18,-0.55 -0.22,-0.79l-0.12,-0.6c-0.13,-0.66 -0.25,-1.32 -0.36,-2c-0.1,-0.68 -0.22,-1.4 -0.36,-2.18c-0.26,0.06 -0.48,0.12 -0.67,0.18c-0.17,0.06 -0.35,0.1 -0.54,0.14c-0.48,0.09 -0.77,-0.09 -0.86,-0.56c-0.04,-0.18 -0.04,-0.36 -0.01,-0.53c0.03,-0.18 0.15,-0.31 0.34,-0.39l1.32,-0.58c0.16,-0.08 0.26,-0.21 0.28,-0.4c0.02,-0.2 0.01,-0.42 -0.04,-0.66c-0.03,-0.25 -0.07,-0.5 -0.09,-0.75c-0.02,-0.24 0.02,-0.46 0.12,-0.64c0.1,-0.18 0.31,-0.31 0.62,-0.37c0.22,-0.04 0.4,-0.01 0.53,0.09c0.14,0.1 0.24,0.22 0.32,0.38c0.07,0.16 0.12,0.32 0.16,0.48c0,0.02 0.01,0.09 0.02,0.22c0.01,0.12 0.02,0.23 0.02,0.35c0.02,0.12 0.02,0.2 0.03,0.23l0.1,0.5l1.91,-0.38c0.23,-0.04 0.43,0.03 0.6,0.23c0.17,0.18 0.27,0.39 0.32,0.61c0,0.04 0,0.12 0,0.24c-0.01,0.12 -0.05,0.24 -0.11,0.36c-0.07,0.11 -0.17,0.18 -0.32,0.21l-2.01,0.4c-0.01,0 -0.03,0.01 -0.06,0.04c-0.03,0.02 -0.06,0.06 -0.09,0.12l-0.02,0.05c0,0.29 0.01,0.53 0.03,0.71c0.01,0.17 0.02,0.33 0.04,0.48c0.03,0.14 0.06,0.31 0.1,0.5c0.11,0.58 0.24,1.15 0.37,1.73c0.14,0.57 0.28,1.17 0.4,1.81c0.05,0.21 0.07,0.43 0.08,0.65c0.01,0.23 -0.02,0.42 -0.11,0.59c-0.08,0.18 -0.25,0.3 -0.49,0.34zm14.18,-3.02c-0.39,0.08 -0.75,0 -1.1,-0.22c-0.35,-0.24 -0.67,-0.55 -0.97,-0.94c-0.28,-0.39 -0.53,-0.79 -0.74,-1.19c-0.2,-0.42 -0.35,-0.77 -0.45,-1.05c-0.03,-0.12 -0.08,-0.28 -0.16,-0.48c-0.06,-0.21 -0.13,-0.43 -0.2,-0.64c-0.08,-0.23 -0.15,-0.43 -0.2,-0.6c-0.05,-0.18 -0.07,-0.28 -0.08,-0.31l-0.09,-0.47c-0.05,-0.22 -0.07,-0.45 -0.09,-0.69c-0.01,-0.23 0.03,-0.44 0.12,-0.62c0.11,-0.19 0.32,-0.31 0.63,-0.37c0.18,-0.04 0.35,-0.02 0.52,0.04c0.17,0.07 0.28,0.19 0.32,0.38c0.12,0.65 0.26,1.26 0.4,1.83c0.15,0.56 0.33,1.1 0.57,1.62c0.23,0.52 0.55,1.05 0.96,1.6l0.13,-0.02c0.11,-0.55 0.2,-1.09 0.26,-1.64c0.07,-0.55 0.14,-1.1 0.22,-1.65c0.03,-0.23 0.09,-0.46 0.19,-0.69c0.1,-0.25 0.24,-0.47 0.43,-0.66c0.19,-0.19 0.41,-0.31 0.67,-0.36c0.28,-0.05 0.53,-0.01 0.78,0.13c0.25,0.13 0.49,0.33 0.71,0.58c0.23,0.25 0.43,0.51 0.62,0.8c0.19,0.29 0.35,0.57 0.5,0.82c0.15,0.25 0.28,0.46 0.38,0.61l0.02,0c0.03,0.03 0.06,0.08 0.09,0.14c0.04,0.05 0.08,0.09 0.13,0.14c0.08,-0.62 0.17,-1.23 0.26,-1.84c0.09,-0.62 0.19,-1.23 0.31,-1.83c0.03,-0.18 0.09,-0.39 0.18,-0.65c0.1,-0.27 0.22,-0.52 0.36,-0.74c0.15,-0.23 0.33,-0.36 0.52,-0.4c0.21,-0.04 0.4,0 0.56,0.12c0.17,0.11 0.27,0.26 0.31,0.46c0.02,0.1 0.03,0.19 0.03,0.27c0.02,0.09 0.02,0.18 -0.01,0.28c-0.03,0.22 -0.07,0.52 -0.11,0.91c-0.04,0.37 -0.09,0.79 -0.15,1.26c-0.06,0.46 -0.13,0.93 -0.22,1.42c-0.1,0.47 -0.22,0.92 -0.36,1.34c-0.14,0.41 -0.31,0.75 -0.52,1.03c-0.19,0.27 -0.43,0.43 -0.7,0.48c-0.3,0.06 -0.61,-0.01 -0.92,-0.2c-0.3,-0.2 -0.59,-0.46 -0.87,-0.77c-0.27,-0.33 -0.51,-0.66 -0.73,-0.98c-0.22,-0.34 -0.4,-0.61 -0.53,-0.81c-0.02,-0.02 -0.03,-0.04 -0.05,-0.06c-0.01,-0.03 -0.04,-0.06 -0.06,-0.08l-0.03,0l-0.05,0.09c-0.02,0.18 -0.05,0.44 -0.08,0.79c-0.03,0.34 -0.08,0.72 -0.15,1.13c-0.06,0.41 -0.15,0.81 -0.27,1.2c-0.12,0.38 -0.28,0.71 -0.49,0.99c-0.21,0.27 -0.47,0.44 -0.8,0.5zm14.45,-2.91c-0.75,0.14 -1.49,0.12 -2.2,-0.08c-0.71,-0.19 -1.32,-0.55 -1.84,-1.07c-0.51,-0.52 -0.85,-1.18 -1,-1.97c-0.11,-0.55 -0.1,-1.07 0.03,-1.57c0.14,-0.52 0.34,-1.02 0.6,-1.49c0.28,-0.48 0.56,-0.93 0.85,-1.36c0.15,-0.22 0.35,-0.4 0.59,-0.54c0.25,-0.14 0.5,-0.24 0.78,-0.3c0.68,-0.13 1.35,-0.19 2,-0.16c0.66,0.02 1.27,0.15 1.82,0.39c0.57,0.23 1.05,0.58 1.45,1.07c0.4,0.48 0.67,1.1 0.83,1.88c0.12,0.64 0.1,1.24 -0.07,1.82c-0.17,0.58 -0.45,1.1 -0.84,1.57c-0.37,0.46 -0.82,0.85 -1.35,1.17c-0.51,0.31 -1.06,0.52 -1.65,0.64zm-0.65,-1.68c0.57,-0.12 1.1,-0.32 1.57,-0.62c0.47,-0.31 0.83,-0.7 1.08,-1.18c0.25,-0.48 0.31,-1.03 0.2,-1.63c-0.11,-0.54 -0.35,-0.95 -0.74,-1.24c-0.37,-0.3 -0.81,-0.49 -1.31,-0.56c-0.51,-0.09 -1.01,-0.08 -1.5,0.01c-0.25,0.05 -0.45,0.13 -0.59,0.23c-0.14,0.11 -0.27,0.24 -0.37,0.39c-0.1,0.15 -0.22,0.32 -0.35,0.52c-0.23,0.36 -0.43,0.75 -0.59,1.16c-0.16,0.4 -0.19,0.83 -0.1,1.29c0.14,0.74 0.46,1.22 0.97,1.46c0.5,0.24 1.08,0.29 1.73,0.17zm8.06,0.39c-0.19,0.04 -0.34,0 -0.46,-0.11c-0.12,-0.1 -0.21,-0.24 -0.28,-0.4c-0.06,-0.17 -0.13,-0.32 -0.18,-0.45l-0.23,-1.16c-0.12,-0.59 -0.21,-1.19 -0.27,-1.79c-0.07,-0.62 -0.16,-1.22 -0.27,-1.79c-0.05,-0.28 -0.13,-0.53 -0.23,-0.77c-0.1,-0.24 -0.18,-0.5 -0.23,-0.76l-0.08,-0.42c0.05,-0.17 0.13,-0.31 0.26,-0.41c0.13,-0.1 0.27,-0.17 0.43,-0.2c0.23,-0.05 0.42,-0.01 0.56,0.1c0.14,0.11 0.25,0.24 0.32,0.41c0.09,0.17 0.17,0.32 0.24,0.46c0.07,0.13 0.15,0.19 0.25,0.2c0.26,-0.26 0.51,-0.51 0.75,-0.75c0.25,-0.25 0.51,-0.46 0.79,-0.63c0.29,-0.19 0.62,-0.32 1,-0.39c0.19,-0.04 0.4,-0.04 0.62,0.01c0.24,0.04 0.45,0.12 0.64,0.25c0.18,0.11 0.3,0.28 0.34,0.5c0.05,0.27 -0.02,0.49 -0.21,0.66c-0.19,0.17 -0.37,0.27 -0.56,0.31c-0.13,0.02 -0.25,0.02 -0.38,-0.01c-0.12,-0.03 -0.25,-0.03 -0.38,-0.01c-0.36,0.07 -0.69,0.23 -0.98,0.49c-0.28,0.24 -0.51,0.5 -0.7,0.8c-0.19,0.3 -0.34,0.57 -0.45,0.82c-0.02,0.11 -0.02,0.27 0,0.49c0.03,0.23 0.06,0.48 0.1,0.77c0.05,0.27 0.09,0.54 0.13,0.8c0.05,0.26 0.09,0.49 0.12,0.68c0.05,0.35 0.08,0.69 0.08,1.03c0.01,0.32 -0.04,0.6 -0.14,0.84c-0.11,0.23 -0.31,0.37 -0.6,0.43zm6.61,-1.3c-0.23,0.05 -0.44,0 -0.63,-0.14c-0.18,-0.13 -0.29,-0.31 -0.33,-0.52l-0.06,-0.3l-0.57,-5.83l-0.7,-3.55c-0.04,-0.22 -0.08,-0.48 -0.11,-0.76c-0.04,-0.29 -0.01,-0.55 0.07,-0.78c0.1,-0.24 0.31,-0.39 0.63,-0.45c0.3,-0.06 0.52,0 0.67,0.18c0.17,0.17 0.29,0.39 0.36,0.66c0.09,0.26 0.15,0.5 0.19,0.71c0.12,0.61 0.21,1.24 0.29,1.89c0.08,0.63 0.19,1.32 0.32,2.07l0.19,-0.04c0.02,0 0.11,-0.05 0.27,-0.13c0.15,-0.1 0.34,-0.21 0.55,-0.32c0.22,-0.13 0.43,-0.26 0.63,-0.39c0.21,-0.14 0.38,-0.25 0.5,-0.34c0.17,-0.13 0.36,-0.28 0.57,-0.44c0.21,-0.17 0.42,-0.32 0.64,-0.47c0.22,-0.14 0.44,-0.23 0.65,-0.27c0.24,-0.05 0.45,0.01 0.62,0.16c0.18,0.14 0.29,0.32 0.34,0.57c0.05,0.28 -0.01,0.5 -0.2,0.65c-0.19,0.15 -0.38,0.28 -0.57,0.41c-0.1,0.07 -0.27,0.19 -0.52,0.36c-0.24,0.17 -0.51,0.35 -0.82,0.55c-0.31,0.2 -0.61,0.38 -0.9,0.57c-0.29,0.18 -0.54,0.33 -0.74,0.46l0.01,0.04l0.09,0.07c0.09,0.06 0.17,0.1 0.26,0.14c0.09,0.04 0.18,0.09 0.27,0.14c0.18,0.07 0.44,0.17 0.8,0.32c0.35,0.15 0.73,0.31 1.13,0.48c0.42,0.17 0.8,0.33 1.14,0.48c0.35,0.14 0.61,0.23 0.76,0.29c0.15,0.08 0.32,0.16 0.5,0.24c0.18,0.08 0.34,0.18 0.49,0.3c0.15,0.11 0.24,0.26 0.28,0.45c0.05,0.25 0.02,0.47 -0.1,0.67c-0.1,0.19 -0.25,0.31 -0.45,0.35c-0.25,0.05 -0.52,0.03 -0.8,-0.07c-0.27,-0.1 -0.54,-0.23 -0.81,-0.38c-0.25,-0.16 -0.5,-0.28 -0.72,-0.38c-0.12,-0.05 -0.35,-0.15 -0.68,-0.28c-0.31,-0.13 -0.68,-0.28 -1.08,-0.44c-0.39,-0.16 -0.76,-0.31 -1.11,-0.46c-0.35,-0.15 -0.62,-0.27 -0.81,-0.35l-0.06,0.01l-0.03,0.16l0.23,2.84c-0.01,0.21 -0.07,0.41 -0.2,0.57c-0.12,0.17 -0.27,0.27 -0.45,0.3z" fill="white" id="svg_3"/>
 </g>
</svg>